<svg width="256" height="256" viewBox="0 0 256 256" fill="none" xmlns="http://www.w3.org/2000/svg">
<rect width="256" height="256" rx="51" fill="#111111"/>
<path d="M69 158.186C69.4992 157.779 70.0371 157.408 70.4918 156.955C76.7785 150.723 83.0593 144.487 89.3305 138.241C101.691 125.933 114.042 113.619 126.404 101.311C127.246 100.472 128.169 99.6915 127.48 98.0276C122.95 97.9561 118.291 98.0063 113.631 97.9967C108.943 97.987 104.253 97.9947 99.5644 97.9947H85.6947H71.7109C71.2948 96.4294 71.1594 61.1418 71.5135 58.3204C72.9995 57.9223 184.79 57.872 186.787 58.3011C186.83 58.819 186.913 59.3833 186.913 59.9456C186.921 72.1107 186.909 84.2759 186.936 96.4391C186.938 97.4865 186.663 98.2634 185.903 99.017C171.488 113.32 157.096 127.641 142.702 141.965C138.319 146.327 133.964 150.715 129.57 155.064C128.743 155.883 128.37 156.722 128.927 158.059H186.837C186.868 159.029 186.915 159.783 186.915 160.534C186.921 172.244 186.917 183.955 186.923 195.664C186.923 196.442 186.973 197.221 187 198H69V158.186Z" fill="white"/>
</svg>
